# xmcd
#
# Track frame offsets: 
#        150
#        12767
#        32667
#        55170
#        88825
#        107970
#        134407
#        153677
#
# Disc length: 2353 seconds
#
# Revision: 0
# Processed by: cddbd v1.4PL0 Copyright (c) Steve Scherf et al.
# Submitted via: ExactAudioCopy v0.90b4
#
DISCID=66092f08
DTITLE=John Lee Hooker - Hooker Alone
DYEAR=1980
DGENRE=Blues
TTITLE0=I Miss You So
TTITLE1=Jesse James
TTITLE2=Dark Room
TTITLE3=I'll Never Get Out of These Blues Alive
TTITLE4=Boogie Chillun
TTITLE5=When My First Wife Left Me
TTITLE6=Boom Boom
TTITLE7=One Bourbon, One Scotch, One Beer
EXTD=
EXTT0=
EXTT1=
EXTT2=
EXTT3=
EXTT4=
EXTT5=
EXTT6=
EXTT7=
PLAYORDER=
